<svg xmlns="http://www.w3.org/2000/svg" version="1.1" xmlns:xlink="http://www.w3.org/1999/xlink" xmlns:svgjs="http://svgjs.com/svgjs" width="1400" height="1100"><svg version="1.1" id="SvgjsSvg1000" xmlns="http://www.w3.org/2000/svg" xmlns:xlink="http://www.w3.org/1999/xlink" x="0px" y="0px" viewBox="0 0 1400 1100" style="enable-background:new 0 0 1400 1100;" xml:space="preserve">
<style type="text/css">
	.st0{display:none;fill:#0075C9;}
	.st1{display:none;}
	.st2{fill:#4B5662;}
	.st3{fill:#0075C9;}
	.st4{fill:#D9E0E2;}
	.st5{fill:#0088D6;}
	.st6{fill:#FFFFFF;}
</style>
<g>
	<g>
		<g>
			<path class="st2" d="M1296.21,655.36l-91.79,224.4c-2.74,6.68-7.62,12.35-13.88,16.03l-193.75,114.23
				c-5.16,3.01-10.91,4.61-16.89,4.61H761.63c-8.76,0-17.28-3.56-23.5-9.74c-6.18-6.22-9.73-14.78-9.73-23.5V800.54v-35.77
				c0-18.35,14.88-33.23,33.23-33.23h0c18.35,0,33.23,14.88,33.23,33.23v183.41h175.96l78.46-46.25L888.06,693.91H761.63
				c-18.35,0-33.23-14.88-33.23-33.23v0c0-18.35,14.88-33.23,33.23-33.23h142.74c10.32,0,19.94,4.73,26.23,12.86l176.4,227.57
				l40.15-23.65l79.87-195.2l-132.69-154.7l-17.5,40.74c-7.24,16.86-26.78,24.66-43.65,17.42v0c-16.86-7.24-24.66-26.79-17.41-43.65
				l88.8-206.66l-78.85-74.87l-59.85,144.38c-5.16,12.39-17.24,20.49-30.69,20.49h-77.71c-18.35,0-33.23-14.88-33.23-33.23v0
				c0-18.35,14.88-33.23,33.23-33.23h55.5l61.14-147.43l-27.87-26.47H794.86v341.33h61.07c18.35,0,33.23,14.88,33.23,33.23v0
				c0,18.35-14.88,33.23-33.23,33.23h-94.3c-8.76,0-17.28-3.56-23.5-9.73c-6.18-6.22-9.73-14.74-9.73-23.5v-407.8
				c0-8.76,3.56-17.32,9.73-23.5s14.74-9.73,23.5-9.73h197.86c8.48,0,16.73,3.28,22.87,9.15l184.76,175.42
				c10.13,9.58,13.17,24.4,7.66,37.18l-51.21,119.2l167.09,194.85C1298.83,630.65,1300.94,643.79,1296.21,655.36z"></path>
			<path class="st3" d="M605.14,713.35V151.82H484.69l50.86,118.38c1.72,4.03,2.7,8.68,2.7,13.1v91.72
				c0,18.35-14.88,33.23-33.23,33.23h0c-18.35,0-33.23-14.88-33.23-33.23v-84.87l-47.42-110.4L295.43,302.18l125.88,292.94H524.8
				c18.35,0,33.23,14.88,33.23,33.23v0c0,18.35-14.88,33.23-33.23,33.23H399.42c-13.25,0-25.33-7.94-30.53-20.09l-63.22-147.15
				l-132.69,154.7l73.19,178.94l91.4-47.42c4.69-2.42,10.05-3.71,15.33-3.71h133.43c18.35,0,33.23,14.88,33.23,33.23v0
				c0,18.35-14.88,33.23-33.23,33.23H360.99l-58.37,30.26l126.55,74.63h175.96V820.85c0-18.35,14.88-33.23,33.23-33.23h0
				c18.35,0,33.23,14.88,33.23,33.23v160.56c0,8.72-3.56,17.28-9.73,23.5c-6.22,6.18-14.74,9.74-23.5,9.74H420.1
				c-5.98,0-11.73-1.6-16.89-4.61L209.46,895.79c-6.26-3.67-11.14-9.34-13.88-16.03l-91.79-224.4c-4.73-11.57-2.62-24.71,5.55-34.21
				L276.43,426.3l-51.21-119.2c-5.51-12.78-2.46-27.6,7.66-37.18L417.64,94.51c6.14-5.86,14.39-9.15,22.87-9.15h197.86
				c8.76,0,17.28,3.56,23.5,9.73c6.18,6.18,9.73,14.74,9.73,23.5v594.76c0,18.35-14.88,33.23-33.23,33.23h0
				C620.01,746.58,605.14,731.7,605.14,713.35z"></path>
		</g>
	</g>
	<circle class="st3" cx="502.78" cy="408.3" r="50.18"></circle>
	<circle class="st2" cx="1032.09" cy="551.71" r="50.18"></circle>
	<circle class="st3" cx="512.49" cy="810.78" r="50.18"></circle>
</g>
</svg><style>@media (prefers-color-scheme: light) { :root { filter: none; } }
</style></svg>